<svg width="75" height="40" viewBox="0 0 75 40" fill="none" xmlns="http://www.w3.org/2000/svg">
<path d="M7.19537 21.7818C6.02579 20.219 4.92736 18.7093 3.8067 17.1465L3.75778 17.1687C3.78446 18.882 3.8067 20.613 3.8067 22.3485V29.0159H0V11.0724H3.73555L9.13875 18.3109C10.3083 19.8737 11.4068 21.3834 12.5274 22.9462L12.5763 22.9196C12.5497 21.2063 12.5274 19.4752 12.5274 17.7398V11.0724H16.3386V29.0203H12.603L7.19982 21.7818H7.19537Z" fill="black"/>
<path d="M62.855 24.062C64.7984 25.3016 67.0887 25.8462 68.5073 25.8462C69.9259 25.8462 71.0243 25.2751 71.0243 23.938C71.0243 22.2778 69.33 22.1273 67.0131 21.3835C64.5227 20.5645 62.2814 19.3514 62.2814 16.2258C62.2814 12.8788 64.8206 10.798 68.6051 10.798C70.375 10.798 72.5408 11.2452 74.1061 12.0864V15.9779C72.1894 14.787 69.9748 14.2424 68.5784 14.2424C67.182 14.2424 66.2615 14.7383 66.2615 15.9292C66.2615 17.5141 67.9291 17.6381 70.0949 18.3597C72.8076 19.254 75 20.5158 75 23.6901C75 27.1876 72.3362 29.295 68.4495 29.295C66.6573 29.295 64.4916 28.8478 62.8461 28.0288V24.062H62.855Z" fill="black"/>
<path d="M39.2055 8.38515C39.3967 8.3763 39.5924 8.37187 39.7881 8.37187C39.9837 8.37187 40.1883 8.3763 40.384 8.38515L40.6241 0H38.9654L39.2055 8.38515Z" fill="black"/>
<path d="M39.2055 31.6148C39.3967 31.6237 39.5924 31.6281 39.7881 31.6281C39.9837 31.6281 40.1883 31.6237 40.384 31.6148L40.6241 40H38.9654L39.2055 31.6148Z" fill="black"/>
<path d="M28.1278 20.5866C28.1189 20.3962 28.1145 20.2014 28.1145 20.0066C28.1145 19.8118 28.1189 19.6082 28.1278 19.4134L19.705 19.1743V20.8257L28.1278 20.5866Z" fill="black"/>
<path d="M51.4616 20.5866C51.4705 20.3962 51.4749 20.2014 51.4749 20.0066C51.4749 19.8118 51.4705 19.6082 51.4616 19.4134L59.8843 19.1743V20.8257L51.4616 20.5866Z" fill="black"/>
<path d="M37.1865 8.66401C37.3733 8.61974 37.5645 8.58432 37.7557 8.5489C37.9514 8.51348 38.1515 8.48692 38.3472 8.46036L37.1242 0.159319L35.4877 0.447089L37.1865 8.66401Z" fill="black"/>
<path d="M41.2377 31.5394C41.429 31.5173 41.6202 31.4863 41.8114 31.4553C42.0071 31.4199 42.2028 31.38 42.3984 31.3358L44.0972 39.5527L42.4607 39.8405L41.2333 31.5438L41.2377 31.5394Z" fill="black"/>
<path d="M28.408 22.5921C28.3635 22.4061 28.328 22.2158 28.2924 22.0254C28.2568 21.8306 28.2301 21.6314 28.2035 21.4366L19.8696 22.654L20.1587 24.2833L28.4125 22.5921H28.408Z" fill="black"/>
<path d="M51.386 18.559C51.3638 18.3686 51.3327 18.1783 51.3015 17.9879C51.266 17.7931 51.2259 17.5983 51.1815 17.4035L59.4352 15.7123L59.7243 17.3415L51.3905 18.5634L51.386 18.559Z" fill="black"/>
<path d="M35.2476 9.28391C35.4254 9.20865 35.6078 9.13782 35.7901 9.07141C35.9769 9.005 36.1681 8.93859 36.3549 8.88104L33.7 0.920896L32.139 1.48758L35.2431 9.28391H35.2476Z" fill="black"/>
<path d="M43.23 31.1146C43.4168 31.057 43.5991 30.995 43.7815 30.9286C43.9682 30.8622 44.155 30.7869 44.3374 30.7117L47.4459 38.508L45.8849 39.0747L43.23 31.1146Z" fill="black"/>
<path d="M29.035 24.5223C28.9594 24.3452 28.8883 24.1637 28.8216 23.9822C28.7504 23.7963 28.6882 23.6059 28.6304 23.42L20.6345 26.063L21.2037 27.617L29.035 24.5268V24.5223Z" fill="black"/>
<path d="M50.959 16.58C50.9012 16.3985 50.8434 16.2126 50.7767 16.0311C50.71 15.8451 50.6344 15.6592 50.5588 15.4777L58.3901 12.383L58.9593 13.937L50.9635 16.58H50.959Z" fill="black"/>
<path d="M33.4509 10.2357C33.6155 10.1294 33.78 10.032 33.949 9.93463C34.1225 9.8328 34.2959 9.73983 34.4738 9.65129L30.4714 2.27111L29.035 3.099L33.4554 10.2401L33.4509 10.2357Z" fill="black"/>
<path d="M45.1156 30.3486C45.289 30.26 45.458 30.1671 45.627 30.0741C45.8004 29.9767 45.9694 29.8704 46.1384 29.7642L50.5588 36.9053L49.1224 37.7332L45.12 30.353L45.1156 30.3486Z" fill="black"/>
<path d="M29.9866 26.3154C29.8843 26.156 29.7821 25.9877 29.6842 25.8239C29.5819 25.6513 29.4886 25.4786 29.3996 25.3015L21.9863 29.286L22.8179 30.716L29.9911 26.3154H29.9866Z" fill="black"/>
<path d="M50.1942 14.6984C50.1053 14.5257 50.0163 14.3575 49.9185 14.1892C49.8162 14.0166 49.7139 13.8483 49.6072 13.6801L56.7803 9.27944L57.6119 10.7094L50.1986 14.6939L50.1942 14.6984Z" fill="black"/>
<path d="M31.8455 11.4797C31.9878 11.3469 32.1301 11.2229 32.2813 11.0946C32.437 10.9662 32.5926 10.8422 32.7483 10.7227L27.5185 4.14382L26.2467 5.20635L31.8455 11.4753V11.4797Z" fill="black"/>
<path d="M46.8411 29.2727C46.9968 29.1576 47.148 29.0381 47.2947 28.9141C47.4504 28.7857 47.5971 28.6529 47.7439 28.5201L53.3427 34.7891L52.0709 35.8516L46.8411 29.2772V29.2727Z" fill="black"/>
<path d="M31.2364 27.9136C31.1074 27.772 30.9784 27.6303 30.8539 27.4798C30.7249 27.3248 30.6004 27.1699 30.4804 27.0149L23.872 32.2213L24.9393 33.4875L31.2364 27.9136Z" fill="black"/>
<path d="M49.1091 12.985C48.9935 12.8301 48.8734 12.6795 48.7489 12.5334C48.6199 12.3785 48.4865 12.2324 48.3531 12.0863L54.6501 6.51242L55.7174 7.77861L49.1091 12.985Z" fill="black"/>
<path d="M30.4804 12.985C30.596 12.8301 30.716 12.6795 30.8406 12.5334C30.9695 12.3829 31.1029 12.2324 31.2364 12.0863L24.9393 6.51242L23.872 7.77861L30.4759 12.985H30.4804Z" fill="black"/>
<path d="M48.3531 27.9136C48.482 27.772 48.611 27.6303 48.74 27.4798C48.8689 27.3248 48.9935 27.1699 49.1135 27.0149L55.7174 32.2213L54.6501 33.4875L48.3531 27.9136Z" fill="black"/>
<path d="M32.7483 29.2727C32.5971 29.1576 32.4415 29.0381 32.2947 28.9141C32.139 28.7857 31.9923 28.6529 31.8455 28.5201L26.2467 34.7891L27.5185 35.8516L32.7483 29.2772V29.2727Z" fill="black"/>
<path d="M47.7483 11.4797C47.606 11.3469 47.4637 11.2229 47.3125 11.0946C47.1569 10.9662 47.0012 10.8422 46.8456 10.7227L52.0753 4.14382L53.3472 5.20635L47.7483 11.4753V11.4797Z" fill="black"/>
<path d="M29.3953 14.6984C29.4842 14.5257 29.5776 14.3575 29.671 14.1892C29.7733 14.0166 29.8755 13.8483 29.9823 13.6801L22.8091 9.27944L21.9775 10.7094L29.3908 14.6939L29.3953 14.6984Z" fill="black"/>
<path d="M49.6027 26.3155C49.7095 26.1561 49.8073 25.9878 49.9051 25.8196C50.0074 25.6469 50.1008 25.4743 50.1942 25.2972L57.6075 29.2817L56.7803 30.7117L49.6072 26.311L49.6027 26.3155Z" fill="black"/>
<path d="M34.4738 30.3486C34.3048 30.26 34.1313 30.1671 33.9624 30.0741C33.7889 29.9723 33.6199 29.8704 33.4509 29.7642L29.0305 36.9053L30.467 37.7332L34.4693 30.353L34.4738 30.3486Z" fill="black"/>
<path d="M46.1384 10.2357C45.9783 10.1294 45.8093 10.032 45.6448 9.93463C45.4714 9.8328 45.2935 9.73983 45.12 9.65129L49.1224 2.27111L50.5588 3.099L46.1384 10.2401V10.2357Z" fill="black"/>
<path d="M28.6304 16.58C28.6882 16.3985 28.7504 16.2126 28.8127 16.0311C28.8794 15.8451 28.955 15.6592 29.0306 15.4777L21.1993 12.383L20.6301 13.937L28.6259 16.58H28.6304Z" fill="black"/>
<path d="M50.5545 24.5223C50.6301 24.3452 50.7012 24.1637 50.7679 23.9822C50.8391 23.7963 50.9013 23.6059 50.9592 23.42L58.955 26.063L58.3902 27.617L50.5589 24.5268L50.5545 24.5223Z" fill="black"/>
<path d="M36.3593 31.1146C36.177 31.057 35.9902 30.995 35.8079 30.9286C35.6211 30.8622 35.4343 30.7869 35.252 30.7117L32.1435 38.508L33.7044 39.0747L36.3593 31.1146Z" fill="black"/>
<path d="M44.3418 9.28391C44.1639 9.20865 43.986 9.13782 43.8037 9.07141C43.6169 9.005 43.4257 8.94302 43.2345 8.88104L45.8894 0.920896L47.4503 1.48758L44.3418 9.28391Z" fill="black"/>
<path d="M28.2034 18.559C28.2257 18.3686 28.2568 18.1783 28.2879 17.9879C28.3235 17.7931 28.3635 17.5983 28.408 17.4035L20.1542 15.7123L19.8652 17.3415L28.199 18.5634L28.2034 18.559Z" fill="black"/>
<path d="M51.1815 22.5921C51.2259 22.4061 51.2615 22.2158 51.2971 22.0254C51.3327 21.8262 51.3638 21.6314 51.386 21.4366L59.7199 22.654L59.4308 24.2788L51.177 22.5876L51.1815 22.5921Z" fill="black"/>
<path d="M38.3516 31.5395C38.1604 31.513 37.9692 31.4864 37.778 31.451C37.5823 31.4156 37.3866 31.3757 37.1909 31.3314L35.4877 39.5439L37.1242 39.8317L38.3516 31.5351V31.5395Z" fill="black"/>
<path d="M42.4029 8.66401C42.2161 8.61974 42.0249 8.58432 41.8337 8.5489C41.6335 8.51348 41.4379 8.48692 41.2422 8.46036L42.4652 0.159319L44.1017 0.447089L42.4029 8.66401Z" fill="black"/>
</svg>
