<svg width="376" height="376" viewBox="0 0 376 376" fill="none" xmlns="http://www.w3.org/2000/svg">
<g clip-path="url(#clip0_176_1234)">
<path d="M341.988 0H34.0123C15.228 0 0 15.228 0 34.0123V341.987C0 360.772 15.228 376 34.0123 376H341.987C360.772 376 376 360.772 376 341.987V34.0123C376 15.228 360.772 0 341.988 0ZM116.35 324.663C116.35 330.13 111.919 334.561 106.452 334.561H64.3186C58.8519 334.561 54.4206 330.13 54.4206 324.663V148.041C54.4206 142.574 58.8519 138.143 64.3186 138.143H106.452C111.919 138.143 116.35 142.574 116.35 148.041V324.663ZM85.3855 121.493C63.2792 121.493 45.3582 103.572 45.3582 81.466C45.3582 59.3598 63.2792 41.4387 85.3855 41.4387C107.492 41.4387 125.413 59.3598 125.413 81.466C125.413 103.572 107.493 121.493 85.3855 121.493ZM336.54 325.46C336.54 330.486 332.465 334.561 327.439 334.561H282.226C277.201 334.561 273.126 330.486 273.126 325.46V242.614C273.126 230.256 276.751 188.458 240.828 188.458C212.964 188.458 207.312 217.067 206.177 229.906V325.46C206.177 330.486 202.103 334.561 197.076 334.561H153.348C148.322 334.561 144.247 330.486 144.247 325.46V147.243C144.247 142.218 148.322 138.143 153.348 138.143H197.076C202.102 138.143 206.177 142.218 206.177 147.243V162.652C216.509 147.147 231.864 135.179 264.557 135.179C336.954 135.179 336.54 202.816 336.54 239.979V325.46Z" fill="#0077B7"/>
</g>
<defs>
<clipPath id="clip0_176_1234">
<rect width="376" height="376" fill="white"/>
</clipPath>
</defs>
</svg>
